<svg xmlns="http://www.w3.org/2000/svg" version="1.1" xmlns:xlink="http://www.w3.org/1999/xlink" xmlns:svgjs="http://svgjs.dev/svgjs" width="1500" height="1500" viewBox="0 0 1500 1500"><rect width="1500" height="1500" fill="#ffffff"></rect><g transform="matrix(0.6666666666666666,0,0,0.6666666666666666,249.39393939393938,435.99032258064517)"><svg viewBox="0 0 396 248" data-background-color="#f9f9f9" preserveAspectRatio="xMidYMid meet" height="939" width="1500" xmlns="http://www.w3.org/2000/svg" xmlns:xlink="http://www.w3.org/1999/xlink"><g id="tight-bounds" transform="matrix(1,0,0,1,0.2400000000000091,0.4000000000000057)"><svg viewBox="0 0 395.52 247.2" height="247.2" width="395.52"><g><svg></svg></g><g><svg viewBox="0 0 395.52 247.2" height="247.2" width="395.52"><mask id="c9ace746-cae4-4257-8c0d-ea16e3992cc0"><rect width="640" height="400" fill="white"></rect><g transform="matrix(1,0,0,1,39.55199999999999,95.32290379899497)"><svg viewBox="0 0 316.416 56.55419240201005" height="56.55419240201005" width="316.416"><g><svg viewBox="0 0 316.416 56.55419240201005" height="56.55419240201005" width="316.416"><g><svg viewBox="0 0 316.416 56.55419240201005" height="56.55419240201005" width="316.416"><g><svg viewBox="0 0 316.416 56.55419240201005" height="56.55419240201005" width="316.416"><g id="SvgjsG1080"><svg viewBox="0 0 316.416 56.55419240201005" height="56.55419240201005" width="316.416" id="SvgjsSvg1079"><g><svg viewBox="0 0 316.416 56.55419240201005" height="56.55419240201005" width="316.416"><g transform="matrix(1,0,0,1,0,0)"><svg width="316.416" viewBox="-1.85 -40.45999999577501 249.73 45.45999999577501" height="56.55419240201005" data-palette-color="#030303"><path d="M3 0.15L3 0.15Q2.55 0.15 2.35-0.2 2.15-0.55 2.15-0.95L2.15-0.95Q2.2-1.8 2.55-1.9 2.9-2 3.4-2L3.4-2Q5-2 5.65-2.58 6.3-3.15 6.48-4.03 6.65-4.9 6.65-5.85L6.65-5.85 6.65-25.7Q6.65-26.65 6.48-27.53 6.3-28.4 5.65-28.98 5-29.55 3.4-29.55L3.4-29.55Q2.9-29.55 2.55-29.65 2.2-29.75 2.15-30.6L2.15-30.6Q2.15-31 2.35-31.35 2.55-31.7 3-31.7L3-31.7Q4.65-31.65 6.05-31.6 7.45-31.55 8.95-31.55L8.95-31.55 24.65-31.55Q25.2-31.55 25.58-31.3 25.95-31.05 25.95-30.35L25.95-30.35 26.1-23.35Q26.1-22.85 25.63-22.6 25.15-22.35 24.75-22.35L24.75-22.35Q24.2-22.35 23.75-22.58 23.3-22.8 23.2-23.25L23.2-23.25Q22.85-25.5 22.38-26.88 21.9-28.25 20.98-28.88 20.05-29.5 18.3-29.55L18.3-29.55 11.6-29.55 11.6-16.85 20.65-16.85Q21.05-16.8 21.23-16.45 21.4-16.1 21.4-15.7L21.4-15.7Q21.4-15.35 21.23-15.03 21.05-14.7 20.65-14.7L20.65-14.7 11.6-14.7 11.6-5.25Q11.65-4.6 11.8-3.83 11.95-3.05 12.68-2.5 13.4-1.95 15.1-2L15.1-2 19.7-2Q21.45-2.05 22.38-2.58 23.3-3.1 23.85-4.35 24.4-5.6 25.05-7.8L25.05-7.8Q25.25-8.3 25.73-8.45 26.2-8.6 26.75-8.5L26.75-8.5Q27.15-8.45 27.58-8.15 28-7.85 27.95-7.35L27.95-7.35 26.95-1.05Q26.8-0.35 26.48-0.18 26.15 0 25.5 0L25.5 0 9 0Q7.5 0 6.08 0.03 4.65 0.05 3 0.15ZM47.6 1L47.6 1Q43.4 1 39.9-1 36.4-3 34.27-6.7 32.15-10.4 32.15-15.55L32.15-15.55Q32.15-20.65 34.15-24.48 36.15-28.3 39.82-30.43 43.5-32.55 48.5-32.55L48.5-32.55Q50.3-32.55 52.22-32.2 54.15-31.85 55.8-31.03 57.45-30.2 58.47-28.85 59.5-27.5 59.5-25.5L59.5-25.5Q59.55-23.35 58.2-21.73 56.85-20.1 54.4-20.1L54.4-20.1Q52.9-20.1 52.27-20.83 51.65-21.55 51.7-21.9L51.7-21.9Q51.7-22.05 52.32-22.43 52.95-22.8 53.57-23.58 54.2-24.35 54.2-25.65L54.2-25.65Q54.2-27.9 52.7-29.23 51.2-30.55 48.45-30.55L48.45-30.55Q45.45-30.55 43.07-28.85 40.7-27.15 39.35-23.88 38-20.6 38-15.85L38-15.85Q38-11.85 39.42-8.58 40.85-5.3 43.42-3.38 46-1.45 49.4-1.45L49.4-1.45Q52.1-1.45 54.02-2.58 55.95-3.7 57.5-6.2L57.5-6.2Q57.95-7.05 59.1-6.35L59.1-6.35Q59.55-6.05 59.8-5.63 60.05-5.2 59.7-4.75L59.7-4.75Q57.8-2.35 56.1-1.13 54.4 0.1 52.4 0.55 50.4 1 47.6 1ZM70.05 0.6L70.05 0.6Q67 0.6 65.17-1.15 63.35-2.9 63.35-5.35L63.35-5.35Q63.35-7.9 64.67-9.35 66-10.8 68.17-11.5 70.35-12.2 72.92-12.45 75.5-12.7 77.95-12.85L77.95-12.85 77.95-16.8Q77.95-19.15 76.77-20.48 75.6-21.8 72.8-21.8L72.8-21.8Q71.4-21.8 70.17-20.9 68.95-20 68.95-18.3L68.95-18.3Q68.95-17.5 69.35-16.95 69.75-16.4 70.15-16.1 70.55-15.8 70.55-15.7L70.55-15.7Q70.55-15.5 69.97-14.98 69.4-14.45 68.4-14.45L68.4-14.45Q66.85-14.45 66-15.6 65.15-16.75 65.15-18.15L65.15-18.15Q65.15-20.05 66.32-21.15 67.5-22.25 69.35-22.75 71.2-23.25 73.1-23.25L73.1-23.25Q75.35-23.25 77.47-22.7 79.6-22.15 80.97-20.6 82.35-19.05 82.35-15.95L82.35-15.95 82.35-4.3Q82.4-3.8 82.6-3.1 82.8-2.4 83.37-1.88 83.95-1.35 84.95-1.35L84.95-1.35Q85.3-1.35 85.5-1.23 85.7-1.1 85.7-0.55L85.7-0.55Q85.7-0.1 85.2 0.15 84.7 0.4 84.05 0.5 83.4 0.6 82.95 0.6L82.95 0.6Q81.1 0.6 79.65-0.48 78.2-1.55 77.95-3.45L77.95-3.45Q76.85-1.45 74.67-0.43 72.5 0.6 70.05 0.6ZM71.65-2.1L71.65-2.1Q73.35-2.1 74.77-2.95 76.2-3.8 77.07-5.28 77.95-6.75 77.95-8.55L77.95-8.55 77.95-11.4Q72.8-11.05 70.6-9.75 68.4-8.45 68.4-5.5L68.4-5.5Q68.4-2.1 71.65-2.1ZM97.59 0.6L97.59 0.6Q93.74 0.6 91.17-0.78 88.59-2.15 88.59-4.75L88.59-4.75Q88.59-6.2 89.47-7.1 90.34-8 91.74-8L91.74-8Q92.64-8 93.22-7.53 93.79-7.05 93.79-6.85L93.79-6.85Q93.79-6.7 93.22-6.18 92.64-5.65 92.64-4.5L92.64-4.5Q92.64-3.1 93.97-2.18 95.29-1.25 97.99-1.25L97.99-1.25Q100.34-1.25 101.67-2.27 102.99-3.3 102.99-5.15L102.99-5.15Q102.99-6.65 102.02-7.48 101.04-8.3 99.52-8.8 97.99-9.3 96.27-9.8 94.54-10.3 92.99-11.05 91.44-11.8 90.47-13.13 89.49-14.45 89.49-16.65L89.49-16.65Q89.49-18.9 90.84-20.35 92.19-21.8 94.29-22.53 96.39-23.25 98.54-23.25L98.54-23.25Q100.39-23.25 102.04-22.73 103.69-22.2 104.77-21.15 105.84-20.1 105.84-18.5L105.84-18.5Q105.84-17.25 105.04-16.25 104.24-15.25 102.84-15.25L102.84-15.25Q101.94-15.25 101.37-15.73 100.79-16.2 100.79-16.4L100.79-16.4Q100.79-16.5 101.17-16.78 101.54-17.05 101.89-17.53 102.24-18 102.24-18.75L102.24-18.75Q102.14-20.2 100.84-20.9 99.54-21.6 97.94-21.6L97.94-21.6Q96.19-21.6 94.69-20.75 93.19-19.9 93.19-18.3L93.19-18.3Q93.19-16.85 93.82-16.05 94.44-15.25 95.82-14.68 97.19-14.1 99.39-13.4L99.39-13.4Q101.59-12.7 103.27-11.95 104.94-11.2 105.87-9.98 106.79-8.75 106.79-6.65L106.79-6.65Q106.79-4.55 105.59-2.9 104.39-1.25 102.32-0.33 100.24 0.6 97.59 0.6ZM110.79 0.15L110.79 0.15Q110.39 0.15 110.19-0.18 109.99-0.5 109.99-0.85L109.99-0.85Q110.04-1.6 110.37-1.68 110.69-1.75 111.14-1.75L111.14-1.75Q112.54-1.75 113.07-2.23 113.59-2.7 113.67-3.5 113.74-4.3 113.74-5.15L113.74-5.15 113.74-29.55Q113.74-30.45 113.67-31.23 113.59-32 113.09-32.48 112.59-32.95 111.19-32.95L111.19-32.95Q110.74-32.95 110.37-33.08 109.99-33.2 109.99-33.95L109.99-33.95Q109.99-34.7 110.79-34.85L110.79-34.85Q113.09-35.2 114.32-35.55 115.54-35.9 116.19-36.18 116.84-36.45 117.34-36.45L117.34-36.45Q117.74-36.45 118.02-36.27 118.29-36.1 118.29-35.5L118.29-35.5 118.29-19.4 118.39-19.4Q119.39-20.35 120.44-21.23 121.49-22.1 122.92-22.68 124.34-23.25 126.44-23.25L126.44-23.25Q129.84-23.25 131.84-21.2 133.84-19.15 133.84-15.8L133.84-15.8 133.84-5.15Q133.84-4.3 133.92-3.5 133.99-2.7 134.52-2.23 135.04-1.75 136.39-1.75L136.39-1.75Q136.89-1.75 137.19-1.68 137.49-1.6 137.54-0.85L137.54-0.85Q137.54-0.5 137.37-0.18 137.19 0.15 136.79 0.15L136.79 0.15Q135.34 0.05 134.09 0.03 132.84 0 131.54 0L131.54 0Q130.19 0 128.99 0.03 127.79 0.05 126.34 0.15L126.34 0.15Q125.94 0.15 125.74-0.18 125.54-0.5 125.54-0.85L125.54-0.85Q125.59-1.6 125.89-1.68 126.19-1.75 126.69-1.75L126.69-1.75Q128.09-1.75 128.62-2.23 129.14-2.7 129.19-3.5 129.24-4.3 129.24-5.15L129.24-5.15 129.24-15.75Q129.24-18.25 127.74-19.38 126.24-20.5 124.49-20.5L124.49-20.5Q122.79-20.5 121.49-19.88 120.19-19.25 119.39-18.45 118.59-17.65 118.29-17.05L118.29-17.05 118.29-5.15Q118.29-4.3 118.37-3.5 118.44-2.7 118.97-2.23 119.49-1.75 120.84-1.75L120.84-1.75Q121.34-1.75 121.64-1.68 121.94-1.6 121.99-0.85L121.99-0.85Q121.99-0.5 121.82-0.18 121.64 0.15 121.24 0.15L121.24 0.15Q119.79 0.05 118.54 0.03 117.29 0 115.99 0L115.99 0Q114.64 0 113.44 0.03 112.24 0.05 110.79 0.15ZM141.29 0.15L141.29 0.15Q140.84 0.15 140.64-0.2 140.44-0.55 140.44-0.95L140.44-0.95Q140.49-1.8 140.84-1.9 141.19-2 141.69-2L141.69-2Q143.29-2 143.94-2.58 144.59-3.15 144.76-4.03 144.94-4.9 144.94-5.85L144.94-5.85 144.94-25.7Q144.94-26.65 144.76-27.53 144.59-28.4 143.94-28.98 143.29-29.55 141.69-29.55L141.69-29.55Q141.19-29.55 140.84-29.65 140.49-29.75 140.44-30.6L140.44-30.6Q140.44-31 140.64-31.35 140.84-31.7 141.29-31.7L141.29-31.7Q142.89-31.65 144.31-31.6 145.74-31.55 147.24-31.55L147.24-31.55 161.69-31.55Q162.24-31.55 162.61-31.3 162.99-31.05 162.99-30.35L162.99-30.35 163.14-23.35Q163.14-22.85 162.66-22.6 162.19-22.35 161.79-22.35L161.79-22.35Q161.24-22.35 160.76-22.58 160.29-22.8 160.19-23.25L160.19-23.25Q159.89-25.5 159.41-26.88 158.94-28.25 158.01-28.88 157.09-29.5 155.34-29.55L155.34-29.55 149.89-29.55 149.89-16.55 158.84-16.55Q159.24-16.5 159.44-16.15 159.64-15.8 159.64-15.4L159.64-15.4Q159.64-15.05 159.44-14.73 159.24-14.4 158.84-14.4L158.84-14.4 149.89-14.4 149.89-5.85Q149.94-4.9 150.09-4.03 150.24-3.15 150.91-2.58 151.59-2 153.14-2L153.14-2Q153.64-2 153.99-1.9 154.34-1.8 154.39-0.95L154.39-0.95Q154.39-0.55 154.19-0.2 153.99 0.15 153.49 0.15L153.49 0.15Q150.29 0 147.29 0L147.29 0Q145.79 0 144.34 0.03 142.89 0.05 141.29 0.15ZM165.84 0.15L165.84 0.15Q165.49 0.15 165.26-0.18 165.04-0.5 165.04-0.85L165.04-0.85Q165.09-1.6 165.41-1.68 165.74-1.75 166.19-1.75L166.19-1.75Q167.59-1.75 168.11-2.23 168.64-2.7 168.71-3.5 168.79-4.3 168.79-5.15L168.79-5.15 168.79-29.55Q168.79-30.45 168.71-31.23 168.64-32 168.14-32.48 167.64-32.95 166.24-32.95L166.24-32.95Q165.79-32.95 165.41-33.08 165.04-33.2 165.04-33.95L165.04-33.95Q165.04-34.7 165.84-34.85L165.84-34.85Q168.14-35.2 169.36-35.55 170.59-35.9 171.24-36.15 171.89-36.4 172.39-36.45L172.39-36.45Q172.79-36.5 173.06-36.3 173.34-36.1 173.34-35.5L173.34-35.5 173.34-5.15Q173.34-4.3 173.41-3.5 173.49-2.7 174.01-2.23 174.54-1.75 175.94-1.75L175.94-1.75Q176.39-1.75 176.71-1.68 177.04-1.6 177.09-0.85L177.09-0.85Q177.09-0.5 176.89-0.18 176.69 0.15 176.29 0.15L176.29 0.15Q174.84 0.05 173.61 0.03 172.39 0 171.04 0L171.04 0Q169.69 0 168.49 0.03 167.29 0.05 165.84 0.15ZM191.53 0.6L191.53 0.6Q188.03 0.6 185.41-1.05 182.78-2.7 181.33-5.35 179.88-8 179.88-11L179.88-11Q179.88-13.95 180.93-16.25 181.98-18.55 183.71-20.1 185.43-21.65 187.48-22.45 189.53-23.25 191.53-23.25L191.53-23.25Q195.03-23.25 197.66-21.6 200.28-19.95 201.73-17.3 203.18-14.65 203.18-11.65L203.18-11.65Q203.18-8.7 202.11-6.4 201.03-4.1 199.31-2.55 197.58-1 195.53-0.2 193.48 0.6 191.53 0.6ZM191.53-1.25L191.53-1.25Q193.98-1.25 195.41-2.7 196.83-4.15 197.46-6.53 198.08-8.9 198.08-11.65L198.08-11.65Q198.08-14.3 197.43-16.5 196.78-18.7 195.33-20.05 193.88-21.4 191.53-21.4L191.53-21.4Q189.08-21.4 187.63-19.98 186.18-18.55 185.58-16.23 184.98-13.9 184.98-11.1L184.98-11.1Q184.98-8.5 185.61-6.25 186.23-4 187.68-2.63 189.13-1.25 191.53-1.25ZM218.68 0.5L215.73 0.5 209.33-17.25Q208.53-19.1 207.78-19.88 207.03-20.65 205.53-20.85L205.53-20.85Q204.88-20.95 204.66-21.05 204.43-21.15 204.38-21.8L204.38-21.8Q204.33-22.65 204.86-22.73 205.38-22.8 206.13-22.85L206.13-22.85Q209.23-23 210.98-21.95 212.73-20.9 213.83-18.4L213.83-18.4 218.43-5.45 218.58-5.45Q219.08-7.05 219.78-9.47 220.48-11.9 221.21-14.5 221.93-17.1 222.53-19.33 223.13-21.55 223.43-22.65L223.43-22.65 225.83-22.65 232.68-5.45 232.83-5.45Q233.53-7.55 234.18-10.08 234.83-12.6 235.38-14.93 235.93-17.25 236.33-18.75L236.33-18.75Q236.63-20.1 236.23-20.5 235.83-20.9 234.43-20.9L234.43-20.9Q233.98-20.9 233.68-20.98 233.38-21.05 233.33-21.8L233.33-21.8Q233.33-22.1 233.51-22.45 233.68-22.8 234.03-22.8L234.03-22.8Q235.48-22.75 236.56-22.7 237.63-22.65 238.93-22.65L238.93-22.65Q240.23-22.65 240.96-22.7 241.68-22.75 243.13-22.8L243.13-22.8Q243.53-22.8 243.71-22.45 243.88-22.1 243.88-21.8L243.88-21.8Q243.83-21.05 243.51-20.98 243.18-20.9 242.78-20.9L242.78-20.9Q240.98-20.9 239.96-20.3 238.93-19.7 238.48-17.95L238.48-17.95 232.93 0.5 229.98 0.5 223.63-15.85 218.68 0.5Z" opacity="1" transform="matrix(1,0,0,1,0,0)" fill="black" class="wordmark-text-0" id="SvgjsPath1078" stroke-width="7" stroke="black" stroke-linejoin="round"></path></svg></g></svg></g></svg></g></svg></g></svg></g></svg></g></svg></g></mask><g transform="matrix(1,0,0,1,39.55199999999999,95.32290379899497)"><svg viewBox="0 0 316.416 56.55419240201005" height="56.55419240201005" width="316.416"><g><svg viewBox="0 0 316.416 56.55419240201005" height="56.55419240201005" width="316.416"><g><svg viewBox="0 0 316.416 56.55419240201005" height="56.55419240201005" width="316.416"><g><svg viewBox="0 0 316.416 56.55419240201005" height="56.55419240201005" width="316.416"><g id="textblocktransform"><svg viewBox="0 0 316.416 56.55419240201005" height="56.55419240201005" width="316.416" id="textblock"><g><svg viewBox="0 0 316.416 56.55419240201005" height="56.55419240201005" width="316.416"><g transform="matrix(1,0,0,1,0,0)"><svg width="316.416" viewBox="-1.85 -40.45999999577501 249.73 45.45999999577501" height="56.55419240201005" data-palette-color="#030303"><path d="M3 0.15L3 0.15Q2.55 0.15 2.35-0.2 2.15-0.55 2.15-0.95L2.15-0.95Q2.2-1.8 2.55-1.9 2.9-2 3.4-2L3.4-2Q5-2 5.65-2.58 6.3-3.15 6.48-4.03 6.65-4.9 6.65-5.85L6.65-5.85 6.65-25.7Q6.65-26.65 6.48-27.53 6.3-28.4 5.65-28.98 5-29.55 3.4-29.55L3.4-29.55Q2.9-29.55 2.55-29.65 2.2-29.75 2.15-30.6L2.15-30.6Q2.15-31 2.35-31.35 2.55-31.7 3-31.7L3-31.7Q4.65-31.65 6.05-31.6 7.45-31.55 8.95-31.55L8.95-31.55 24.65-31.55Q25.2-31.55 25.58-31.3 25.95-31.05 25.95-30.35L25.95-30.35 26.1-23.35Q26.1-22.85 25.63-22.6 25.15-22.35 24.75-22.35L24.75-22.35Q24.2-22.35 23.75-22.58 23.3-22.8 23.2-23.25L23.2-23.25Q22.85-25.5 22.38-26.88 21.9-28.25 20.98-28.88 20.05-29.5 18.3-29.55L18.3-29.55 11.6-29.55 11.6-16.85 20.65-16.85Q21.05-16.8 21.23-16.45 21.4-16.1 21.4-15.7L21.4-15.7Q21.4-15.35 21.23-15.03 21.05-14.7 20.65-14.7L20.65-14.7 11.6-14.7 11.6-5.25Q11.65-4.6 11.8-3.83 11.95-3.05 12.68-2.5 13.4-1.95 15.1-2L15.1-2 19.7-2Q21.45-2.05 22.38-2.58 23.3-3.1 23.85-4.35 24.4-5.6 25.05-7.8L25.05-7.8Q25.25-8.3 25.73-8.45 26.2-8.6 26.75-8.5L26.75-8.5Q27.15-8.45 27.58-8.15 28-7.85 27.95-7.35L27.95-7.35 26.95-1.05Q26.8-0.35 26.48-0.18 26.15 0 25.5 0L25.5 0 9 0Q7.5 0 6.08 0.03 4.65 0.05 3 0.15ZM47.6 1L47.6 1Q43.4 1 39.9-1 36.4-3 34.27-6.7 32.15-10.4 32.15-15.55L32.15-15.55Q32.15-20.65 34.15-24.48 36.15-28.3 39.82-30.43 43.5-32.55 48.5-32.55L48.5-32.55Q50.3-32.55 52.22-32.2 54.15-31.85 55.8-31.03 57.45-30.2 58.47-28.85 59.5-27.5 59.5-25.5L59.5-25.5Q59.55-23.35 58.2-21.73 56.85-20.1 54.4-20.1L54.4-20.1Q52.9-20.1 52.27-20.83 51.65-21.55 51.7-21.9L51.7-21.9Q51.7-22.05 52.32-22.43 52.95-22.8 53.57-23.58 54.2-24.35 54.2-25.65L54.2-25.65Q54.2-27.9 52.7-29.23 51.2-30.55 48.45-30.55L48.45-30.55Q45.45-30.55 43.07-28.85 40.7-27.15 39.35-23.88 38-20.6 38-15.85L38-15.85Q38-11.85 39.42-8.58 40.85-5.3 43.42-3.38 46-1.45 49.4-1.45L49.4-1.45Q52.1-1.45 54.02-2.58 55.95-3.7 57.5-6.2L57.5-6.2Q57.95-7.05 59.1-6.35L59.1-6.35Q59.55-6.05 59.8-5.63 60.05-5.2 59.7-4.75L59.7-4.75Q57.8-2.35 56.1-1.13 54.4 0.1 52.4 0.55 50.4 1 47.6 1ZM70.05 0.6L70.05 0.6Q67 0.6 65.17-1.15 63.35-2.9 63.35-5.35L63.35-5.35Q63.35-7.9 64.67-9.35 66-10.8 68.17-11.5 70.35-12.2 72.92-12.45 75.5-12.7 77.95-12.85L77.95-12.85 77.95-16.8Q77.95-19.15 76.77-20.48 75.6-21.8 72.8-21.8L72.8-21.8Q71.4-21.8 70.17-20.9 68.95-20 68.95-18.3L68.95-18.3Q68.95-17.5 69.35-16.95 69.75-16.4 70.15-16.1 70.55-15.8 70.55-15.7L70.55-15.7Q70.55-15.5 69.97-14.98 69.4-14.45 68.4-14.45L68.4-14.45Q66.85-14.45 66-15.6 65.15-16.75 65.15-18.15L65.15-18.15Q65.15-20.05 66.32-21.15 67.5-22.25 69.35-22.75 71.2-23.25 73.1-23.25L73.1-23.25Q75.35-23.25 77.47-22.7 79.6-22.15 80.97-20.6 82.35-19.05 82.35-15.95L82.35-15.95 82.35-4.3Q82.4-3.8 82.6-3.1 82.8-2.4 83.37-1.88 83.95-1.35 84.95-1.35L84.95-1.35Q85.3-1.35 85.5-1.23 85.7-1.1 85.7-0.55L85.7-0.55Q85.7-0.1 85.2 0.15 84.7 0.4 84.05 0.5 83.4 0.6 82.95 0.6L82.95 0.6Q81.1 0.6 79.65-0.48 78.2-1.55 77.95-3.45L77.95-3.45Q76.85-1.45 74.67-0.43 72.5 0.6 70.05 0.6ZM71.65-2.1L71.65-2.1Q73.35-2.1 74.77-2.95 76.2-3.8 77.07-5.28 77.95-6.75 77.95-8.55L77.95-8.55 77.95-11.4Q72.8-11.05 70.6-9.75 68.4-8.45 68.4-5.5L68.4-5.5Q68.4-2.1 71.65-2.1ZM97.59 0.6L97.59 0.6Q93.74 0.6 91.17-0.78 88.59-2.15 88.59-4.75L88.59-4.75Q88.59-6.2 89.47-7.1 90.34-8 91.74-8L91.74-8Q92.64-8 93.22-7.53 93.79-7.05 93.79-6.85L93.79-6.85Q93.79-6.7 93.22-6.18 92.64-5.65 92.64-4.5L92.64-4.5Q92.64-3.1 93.97-2.18 95.29-1.25 97.99-1.25L97.99-1.25Q100.34-1.25 101.67-2.27 102.99-3.3 102.99-5.15L102.99-5.15Q102.99-6.65 102.02-7.48 101.04-8.3 99.52-8.8 97.99-9.3 96.27-9.8 94.54-10.3 92.99-11.05 91.44-11.8 90.47-13.13 89.49-14.45 89.49-16.65L89.49-16.65Q89.49-18.9 90.84-20.35 92.19-21.8 94.29-22.53 96.39-23.25 98.54-23.25L98.54-23.25Q100.39-23.25 102.04-22.73 103.69-22.2 104.77-21.15 105.84-20.1 105.84-18.5L105.84-18.5Q105.84-17.25 105.04-16.25 104.24-15.25 102.84-15.25L102.84-15.25Q101.94-15.25 101.37-15.73 100.79-16.2 100.79-16.4L100.79-16.4Q100.79-16.5 101.17-16.78 101.54-17.05 101.89-17.53 102.24-18 102.24-18.75L102.24-18.75Q102.14-20.2 100.84-20.9 99.54-21.6 97.94-21.6L97.94-21.6Q96.19-21.6 94.69-20.75 93.19-19.9 93.19-18.3L93.19-18.3Q93.19-16.85 93.82-16.05 94.44-15.25 95.82-14.68 97.19-14.1 99.39-13.4L99.39-13.4Q101.59-12.7 103.27-11.95 104.94-11.2 105.87-9.98 106.79-8.75 106.79-6.65L106.79-6.65Q106.79-4.55 105.59-2.9 104.39-1.25 102.32-0.33 100.24 0.6 97.59 0.6ZM110.79 0.15L110.79 0.15Q110.39 0.15 110.19-0.18 109.99-0.5 109.99-0.85L109.99-0.85Q110.04-1.6 110.37-1.68 110.69-1.75 111.14-1.75L111.14-1.75Q112.54-1.75 113.07-2.23 113.59-2.7 113.67-3.5 113.74-4.3 113.74-5.15L113.74-5.15 113.74-29.55Q113.74-30.45 113.67-31.23 113.59-32 113.09-32.48 112.59-32.95 111.19-32.95L111.19-32.95Q110.74-32.95 110.37-33.08 109.99-33.2 109.99-33.95L109.99-33.95Q109.99-34.7 110.79-34.85L110.79-34.85Q113.09-35.2 114.32-35.55 115.54-35.9 116.19-36.18 116.84-36.45 117.34-36.45L117.34-36.45Q117.74-36.45 118.02-36.27 118.29-36.1 118.29-35.5L118.29-35.5 118.29-19.4 118.39-19.4Q119.39-20.35 120.44-21.23 121.49-22.1 122.92-22.68 124.34-23.25 126.44-23.25L126.44-23.25Q129.84-23.25 131.84-21.2 133.84-19.15 133.84-15.8L133.84-15.8 133.84-5.15Q133.84-4.3 133.92-3.5 133.99-2.7 134.52-2.23 135.04-1.75 136.39-1.75L136.39-1.75Q136.89-1.75 137.19-1.68 137.49-1.6 137.54-0.85L137.54-0.85Q137.54-0.5 137.37-0.18 137.19 0.15 136.79 0.15L136.79 0.15Q135.34 0.05 134.09 0.03 132.84 0 131.54 0L131.54 0Q130.19 0 128.99 0.03 127.79 0.05 126.34 0.15L126.34 0.15Q125.94 0.15 125.74-0.18 125.54-0.5 125.54-0.85L125.54-0.85Q125.59-1.6 125.89-1.68 126.19-1.75 126.69-1.75L126.69-1.75Q128.09-1.75 128.62-2.23 129.14-2.7 129.19-3.5 129.24-4.3 129.24-5.15L129.24-5.15 129.24-15.75Q129.24-18.25 127.74-19.38 126.24-20.5 124.49-20.5L124.49-20.5Q122.79-20.5 121.49-19.88 120.19-19.25 119.39-18.45 118.59-17.65 118.29-17.05L118.29-17.05 118.29-5.15Q118.29-4.3 118.37-3.5 118.44-2.7 118.97-2.23 119.49-1.75 120.84-1.75L120.84-1.75Q121.34-1.75 121.64-1.68 121.94-1.6 121.99-0.85L121.99-0.85Q121.99-0.5 121.82-0.18 121.64 0.15 121.24 0.15L121.24 0.15Q119.79 0.05 118.54 0.03 117.29 0 115.99 0L115.99 0Q114.64 0 113.44 0.03 112.24 0.05 110.79 0.15ZM141.29 0.15L141.29 0.15Q140.84 0.15 140.64-0.2 140.44-0.55 140.44-0.95L140.44-0.95Q140.49-1.8 140.84-1.9 141.19-2 141.69-2L141.69-2Q143.29-2 143.94-2.58 144.59-3.15 144.76-4.03 144.94-4.9 144.94-5.85L144.94-5.85 144.94-25.7Q144.94-26.65 144.76-27.53 144.59-28.4 143.94-28.98 143.29-29.55 141.69-29.55L141.69-29.55Q141.19-29.55 140.84-29.65 140.49-29.75 140.44-30.6L140.44-30.6Q140.44-31 140.64-31.35 140.84-31.7 141.29-31.7L141.29-31.7Q142.89-31.65 144.31-31.6 145.74-31.55 147.24-31.55L147.24-31.55 161.69-31.55Q162.24-31.55 162.61-31.3 162.99-31.05 162.99-30.35L162.99-30.35 163.14-23.35Q163.14-22.85 162.66-22.6 162.19-22.35 161.79-22.35L161.79-22.35Q161.24-22.35 160.76-22.58 160.29-22.8 160.19-23.25L160.19-23.25Q159.89-25.5 159.41-26.88 158.94-28.25 158.01-28.88 157.09-29.5 155.34-29.55L155.34-29.55 149.89-29.55 149.89-16.55 158.84-16.55Q159.24-16.5 159.44-16.15 159.64-15.8 159.64-15.4L159.64-15.4Q159.64-15.05 159.44-14.73 159.24-14.4 158.84-14.4L158.84-14.4 149.89-14.4 149.89-5.85Q149.94-4.9 150.09-4.03 150.24-3.15 150.91-2.58 151.59-2 153.14-2L153.14-2Q153.64-2 153.99-1.9 154.34-1.8 154.39-0.95L154.39-0.95Q154.39-0.55 154.19-0.2 153.99 0.15 153.49 0.15L153.49 0.15Q150.29 0 147.29 0L147.29 0Q145.79 0 144.34 0.03 142.89 0.05 141.29 0.15ZM165.84 0.15L165.84 0.15Q165.49 0.15 165.26-0.18 165.04-0.5 165.04-0.85L165.04-0.85Q165.09-1.6 165.41-1.68 165.74-1.75 166.19-1.75L166.19-1.75Q167.59-1.75 168.11-2.23 168.64-2.7 168.71-3.5 168.79-4.3 168.79-5.15L168.79-5.15 168.79-29.55Q168.79-30.45 168.71-31.23 168.64-32 168.14-32.48 167.64-32.95 166.24-32.95L166.24-32.95Q165.79-32.95 165.41-33.08 165.04-33.2 165.04-33.95L165.04-33.95Q165.04-34.7 165.84-34.85L165.84-34.85Q168.14-35.2 169.36-35.55 170.59-35.9 171.24-36.15 171.89-36.4 172.39-36.45L172.39-36.45Q172.79-36.5 173.06-36.3 173.34-36.1 173.34-35.5L173.34-35.5 173.34-5.15Q173.34-4.3 173.41-3.5 173.49-2.7 174.01-2.23 174.54-1.75 175.94-1.75L175.94-1.75Q176.39-1.75 176.71-1.68 177.04-1.6 177.09-0.85L177.09-0.85Q177.09-0.5 176.89-0.18 176.69 0.15 176.29 0.15L176.29 0.15Q174.84 0.05 173.61 0.03 172.39 0 171.04 0L171.04 0Q169.69 0 168.49 0.03 167.29 0.05 165.84 0.15ZM191.53 0.6L191.53 0.6Q188.03 0.6 185.41-1.05 182.78-2.7 181.33-5.35 179.88-8 179.88-11L179.88-11Q179.88-13.95 180.93-16.25 181.98-18.55 183.71-20.1 185.43-21.65 187.48-22.45 189.53-23.25 191.53-23.25L191.53-23.25Q195.03-23.25 197.66-21.6 200.28-19.95 201.73-17.3 203.18-14.65 203.18-11.65L203.18-11.65Q203.18-8.7 202.11-6.4 201.03-4.1 199.31-2.55 197.58-1 195.53-0.2 193.48 0.6 191.53 0.6ZM191.53-1.25L191.53-1.25Q193.98-1.25 195.41-2.7 196.83-4.15 197.46-6.53 198.08-8.9 198.08-11.65L198.08-11.65Q198.08-14.3 197.43-16.5 196.78-18.7 195.33-20.05 193.88-21.4 191.53-21.4L191.53-21.4Q189.08-21.4 187.63-19.98 186.18-18.55 185.58-16.23 184.98-13.9 184.98-11.1L184.98-11.1Q184.98-8.5 185.61-6.25 186.23-4 187.68-2.63 189.13-1.25 191.53-1.25ZM218.68 0.5L215.73 0.5 209.33-17.25Q208.53-19.1 207.78-19.88 207.03-20.65 205.53-20.85L205.53-20.85Q204.88-20.95 204.66-21.05 204.43-21.15 204.38-21.8L204.38-21.8Q204.33-22.65 204.86-22.73 205.38-22.8 206.13-22.85L206.13-22.85Q209.23-23 210.98-21.95 212.73-20.9 213.83-18.4L213.83-18.4 218.43-5.45 218.58-5.45Q219.08-7.05 219.78-9.47 220.48-11.9 221.21-14.5 221.93-17.1 222.53-19.33 223.13-21.55 223.43-22.65L223.43-22.65 225.83-22.65 232.68-5.45 232.83-5.45Q233.53-7.55 234.18-10.08 234.83-12.6 235.38-14.93 235.93-17.25 236.33-18.75L236.33-18.75Q236.63-20.1 236.23-20.5 235.83-20.9 234.43-20.9L234.43-20.9Q233.98-20.9 233.68-20.98 233.38-21.05 233.33-21.8L233.33-21.8Q233.33-22.1 233.51-22.45 233.68-22.8 234.03-22.8L234.03-22.8Q235.48-22.75 236.56-22.7 237.63-22.65 238.93-22.65L238.93-22.65Q240.23-22.65 240.96-22.7 241.68-22.75 243.13-22.8L243.13-22.8Q243.53-22.8 243.71-22.45 243.88-22.1 243.88-21.8L243.88-21.8Q243.83-21.05 243.51-20.98 243.18-20.9 242.78-20.9L242.78-20.9Q240.98-20.9 239.96-20.3 238.93-19.7 238.48-17.95L238.48-17.95 232.93 0.5 229.98 0.5 223.63-15.85 218.68 0.5Z" opacity="1" transform="matrix(1,0,0,1,0,0)" fill="#000000" class="wordmark-text-0" data-fill-palette-color="primary" id="text-0"></path></svg></g></svg></g></svg></g></svg></g></svg></g></svg></g></svg></g><g mask="url(#c9ace746-cae4-4257-8c0d-ea16e3992cc0)"><g transform="matrix(2.5556234159499143, 0, 0, 2.5556234159499143, 105.99395219177843, 1)"><svg xmlns="http://www.w3.org/2000/svg" xmlns:xlink="http://www.w3.org/1999/xlink" version="1.1" x="0" y="0" viewBox="14.084999999999999 2.080142273402462 71.81500000000001 95.94527834957256" enable-background="new 0 0 100 100" xml:space="preserve" height="95.94527834957256" width="71.81500000000001" class="icon-none" data-fill-palette-color="accent" id="none"><path d="M38.4 20.4C30.2 20.3 31.4 9.3 31.4 9.3 31.7 2 37.9 2 38.5 2.1 39.1 2.1 45.2 2 45.6 9.4 45.6 9.3 46.8 20.3 38.4 20.4 38.5 20.4 38.5 20.4 38.4 20.4 38.5 20.4 38.5 20.4 38.4 20.4M27 25.7C29.9 23.7 33.2 22.4 33.2 22.4L36.1 31.4 37.8 26.7C34.8 22.5 38.2 22.4 38.6 22.4S42.4 22.5 39.4 26.7L41.1 31.4 44 22.4S47.7 23.9 50.8 26.2C51.6 26.8 52 27.1 52.7 27.9 52.8 28 52.9 28.1 52.9 28.2L59.7 38.8 74 42.9C75.2 43.2 76 44.3 76 45.6 76 47.4 74.4 48.7 72.7 48.3L55.7 45C54.7 44.8 53.8 44.2 53.3 43.4L49.8 38.4C49.7 38.2 49.3 38.3 49.3 38.5L47.9 52.5 46.2 95.3C46.1 96.8 44.9 98 43.4 97.9 42 97.9 40.8 96.8 40.7 95.4L37.7 65.5 32 95.7C31.7 97.2 30.3 98.2 28.8 98 27.4 97.8 26.4 96.5 26.5 95.1L28.6 56.4 15.9 45.5C13.7 43.6 13.5 40.3 15.3 38.1L25.9 26.7C26.2 26.3 26.6 26 27 25.7M27.5 37.3L22.2 42.1 28.7 48.6zM75.8 39.3C70.2 39.3 65.7 34.8 65.7 29.2S70.2 19.1 75.8 19.1 85.9 23.6 85.9 29.2 81.4 39.3 75.8 39.3M74.7 34.6C75.9 35 77.2 35 78.4 34.6L79.3 34.3C79.6 34.2 79.7 33.9 79.6 33.7 79.5 33.4 79.3 33.1 79.2 32.8S78.9 32.4 78.6 32.5C78.2 32.6 77.8 32.7 77.5 32.8 76.8 33 76 33 75.3 32.7 74.4 32.4 73.9 31.7 73.6 30.9H76C76.2 30.9 76.4 30.7 76.4 30.5V29.7C76.4 29.5 76.2 29.3 76 29.3H73.3V28.7H76C76.2 28.7 76.4 28.5 76.4 28.3V27.5C76.4 27.3 76.2 27.1 76 27.1H73.6C73.9 26.4 74.3 25.9 75 25.7 75.8 25.4 76.6 25.4 77.4 25.6L78.6 25.9C78.9 26 79 25.9 79.2 25.6 79.3 25.3 79.5 25 79.6 24.7S79.7 24.2 79.4 24C79.3 24 79.3 23.9 79.2 23.9 78.1 23.5 76.9 23.3 75.7 23.5 74.8 23.6 74 23.9 73.4 24.5 72.5 25.2 72 26.1 71.6 27.1V27.2H70.4C70.2 27.2 70 27.4 70 27.6V28.4C70 28.6 70.2 28.8 70.4 28.8H71.4V29.4H70.4C70.2 29.4 70 29.6 70 29.8V30.6C70 30.8 70.2 31 70.4 31H71.6L71.9 31.9C72.2 33.1 73.2 34.1 74.7 34.6" fill="#000000" data-fill-palette-color="accent"></path></svg></g></g></svg></g><defs></defs></svg><rect width="395.52" height="247.2" fill="none" stroke="none" visibility="hidden"></rect></g></svg></g></svg>